# xmcd CD database file
#
# Track frame offsets:
#	150
#	16635
#	34462
#	53109
#
# Disc length: 987 seconds
#
# Revision: 0
# Processed by: cddbd v1.5.1PL2 Copyright (c) Steve Scherf et al.
# Submitted via: CDex 1.51
#
DISCID=2803d904
DTITLE=Aile de Luna -  Irishere
DYEAR=2005
DGENRE=その他
TTITLE0=小さなてのひら
TTITLE1=資料室のお茶会
TTITLE2=それは風のように
TTITLE3=は〜りぃすたーふぃっしゅ
EXTD=YEAR: 2005
EXTT0=
EXTT1=
EXTT2=
EXTT3=
PLAYORDER=
